<svg width="109" height="109" viewBox="0 0 109 109" fill="none" xmlns="http://www.w3.org/2000/svg">
<g clip-path="url(#clip0_297_11428)">
<path d="M96.5401 42.6199C91.6401 42.6199 85.4401 43.1799 79.2901 44.1599C84.3201 40.5099 89.1101 36.5199 92.5701 33.0499C103.24 22.3899 97.3901 20.7399 92.7801 16.1199C88.1601 11.4999 86.5101 5.65988 75.8401 16.3199C72.3801 19.7899 68.3801 24.5699 64.7301 29.6099C65.7101 23.4599 66.2701 17.2699 66.2701 12.3599C66.2801 -2.72012 60.9801 0.229881 54.4501 0.229881C47.9201 0.229881 42.6201 -2.73012 42.6201 12.3599C42.6201 17.2599 43.1801 23.4599 44.1601 29.6099C40.5101 24.5699 36.5201 19.7899 33.0601 16.3199C22.3901 5.65988 20.7501 11.4999 16.1301 16.1199C11.5101 20.7399 5.67012 22.3899 16.3301 33.0499C19.7901 36.5199 24.5801 40.5099 29.6101 44.1599C23.4701 43.1799 17.2701 42.6199 12.3601 42.6199C-2.72988 42.6199 0.240121 47.9099 0.240121 54.4499C0.240121 60.9899 -2.71988 66.2799 12.3601 66.2799C17.2601 66.2799 23.4701 65.7199 29.6101 64.7399C24.5801 68.3899 19.7901 72.3799 16.3301 75.8499C5.67012 86.5099 11.5101 88.1599 16.1301 92.7799C20.7501 97.3999 22.4001 103.24 33.0601 92.5699C36.5201 89.1099 40.5201 84.3299 44.1601 79.2899C43.1801 85.4399 42.6201 91.6299 42.6201 96.5399C42.6201 111.62 47.9201 108.66 54.4501 108.66C60.9801 108.66 66.2801 111.62 66.2801 96.5399C66.2801 91.6399 65.7201 85.4399 64.7401 79.2899C68.3901 84.3299 72.3801 89.1099 75.8501 92.5699C86.5201 103.24 88.1701 97.3999 92.7901 92.7799C97.4001 88.1599 103.25 86.5099 92.5801 75.8499C89.1201 72.3799 84.3301 68.3899 79.3001 64.7399C85.4401 65.7199 91.6401 66.2799 96.5501 66.2799C111.63 66.2799 108.67 60.9799 108.67 54.4499C108.67 47.9199 111.63 42.6199 96.5501 42.6199H96.5401ZM79.6401 55.2499C61.6801 58.0199 58.0201 48.0299 55.2601 65.9799C55.1201 66.9099 53.7801 66.9099 53.6401 65.9799C50.8801 48.0299 47.2201 58.0199 29.2601 55.2499C28.3401 55.1099 28.3401 53.7799 29.2601 53.6299C47.2201 50.8699 50.8801 47.1999 53.6401 29.2599C53.7801 28.3299 55.1201 28.3299 55.2601 29.2599C58.0201 47.2099 61.6901 50.8699 79.6401 53.6299C80.5601 53.7799 80.5601 55.1099 79.6401 55.2499Z" fill="#B48DFF"/>
</g>
<defs>
<clipPath id="clip0_297_11428">
<rect width="108.89" height="108.89" fill="white"/>
</clipPath>
</defs>
</svg>
