<svg width="17" height="16" viewBox="0 0 17 16" fill="none" xmlns="http://www.w3.org/2000/svg">
<g clip-path="url(#clip0_297_12834)">
<path d="M2.25108 6.97345C1.98435 6.90198 1.82606 6.62782 1.89753 6.36108C2.25835 5.01449 3.05342 3.82458 4.15943 2.97592C5.26544 2.12724 6.62058 1.66724 8.01468 1.66724C9.40875 1.66724 10.7639 2.12724 11.87 2.97592C12.807 3.69497 13.5209 4.65899 13.9366 5.75573L14.4438 4.85484C14.5792 4.61422 14.8842 4.52897 15.1248 4.66444C15.3654 4.79992 15.4506 5.10481 15.3152 5.34544L14.1588 7.39945C14.0937 7.51505 13.9854 7.59998 13.8576 7.63572C13.73 7.67138 13.5933 7.65492 13.4777 7.58985L11.4239 6.43336C11.1833 6.29788 11.0981 5.99298 11.2336 5.75236C11.369 5.51174 11.674 5.42652 11.9146 5.56201L13.0313 6.19084C12.6862 5.23388 12.0732 4.39236 11.2612 3.76927C10.3298 3.0546 9.18862 2.66724 8.01468 2.66724C6.84068 2.66724 5.69956 3.0546 4.76819 3.76927C3.83682 4.48393 3.1673 5.48594 2.86346 6.6199C2.79199 6.88665 2.51782 7.04492 2.25108 6.97345Z" fill="#323544"/>
<path d="M13.7805 9.02639C14.0472 9.09786 14.2055 9.37199 14.134 9.63873C13.7732 10.9853 12.9781 12.1753 11.8721 13.0239C10.7661 13.8726 9.41101 14.3326 8.01687 14.3326C6.62278 14.3326 5.26764 13.8726 4.16163 13.0239C3.22261 12.3034 2.50773 11.3369 2.09245 10.2374L1.58129 11.1453C1.44581 11.3859 1.14093 11.4711 0.900301 11.3357C0.659673 11.2002 0.574429 10.8953 0.709901 10.6547L1.86632 8.60066C1.93138 8.48513 2.03968 8.40013 2.16739 8.36439C2.29511 8.32873 2.43179 8.34519 2.54734 8.41026L4.60114 9.56673C4.84176 9.70226 4.92699 10.0071 4.79149 10.2478C4.65601 10.4884 4.35111 10.5736 4.11049 10.4381L3.00204 9.81393C3.34749 10.7689 3.95977 11.6085 4.77039 12.2306C5.70176 12.9453 6.84294 13.3326 8.01687 13.3326C9.19088 13.3326 10.332 12.9453 11.2633 12.2306C12.1947 11.5159 12.8643 10.5139 13.1681 9.37993C13.2395 9.11319 13.5137 8.95493 13.7805 9.02639Z" fill="#323544"/>
<path d="M6.93848 6.57361C6.93848 5.97851 7.42088 5.49609 8.01601 5.49609C8.61108 5.49609 9.09354 5.97851 9.09354 6.57361C9.09354 7.16873 8.61108 7.65113 8.01601 7.65113C7.42088 7.65113 6.93848 7.16873 6.93848 6.57361Z" fill="#323544"/>
<path fill-rule="evenodd" clip-rule="evenodd" d="M7.20658 8.05786C6.38246 8.05786 5.71436 8.726 5.71436 9.55013V10.1703C5.71436 10.4464 5.93821 10.6703 6.21436 10.6703H9.81771C10.0938 10.6703 10.3177 10.4464 10.3177 10.1703V9.55013C10.3177 8.726 9.64964 8.05786 8.82544 8.05786H7.20658ZM6.71438 9.55013C6.71438 9.27826 6.93471 9.05786 7.20658 9.05786H8.82544C9.09731 9.05786 9.31771 9.27826 9.31771 9.55013V9.67026H6.71438V9.55013Z" fill="#323544"/>
</g>
<defs>
<clipPath id="clip0_297_12834">
<rect width="16.6667" height="16" fill="white"/>
</clipPath>
</defs>
</svg>
