<svg width="25" height="24" viewBox="0 0 25 24" fill="none" xmlns="http://www.w3.org/2000/svg">
<path d="M13.5039 3.25C13.0897 3.25 12.7539 3.58579 12.7539 4C12.7539 4.41421 13.0897 4.75 13.5039 4.75H20.4999C20.9141 4.75 21.2499 4.41421 21.2499 4C21.2499 3.58579 20.9141 3.25 20.4999 3.25H13.5039Z" fill="#323544"/>
<path d="M13.5039 15.4167C13.0897 15.4167 12.7539 15.0809 12.7539 14.6667C12.7539 14.2525 13.0897 13.9167 13.5039 13.9167H17.4999C17.9141 13.9167 18.2499 14.2525 18.2499 14.6667C18.2499 15.0809 17.9141 15.4167 17.4999 15.4167H13.5039Z" fill="#323544"/>
<path d="M15.9999 20.75H13.5039C13.0897 20.75 12.7539 20.4142 12.7539 20C12.7539 19.5858 13.0897 19.25 13.5039 19.25H15.9999C16.4141 19.25 16.7499 19.5858 16.7499 20C16.7499 20.4142 16.4141 20.75 15.9999 20.75Z" fill="#323544"/>
<path d="M13.5039 10.0833H18.9999C19.4141 10.0833 19.7499 9.74746 19.7499 9.33325C19.7499 8.91904 19.4141 8.58325 18.9999 8.58325H13.5039C13.0897 8.58325 12.7539 8.91904 12.7539 9.33325C12.7539 9.74747 13.0897 10.0833 13.5039 10.0833Z" fill="#323544"/>
<path d="M8.25206 18.1902L9.97387 16.4696C10.2669 16.1768 10.7417 16.177 11.0345 16.47C11.3273 16.763 11.3271 17.2378 11.0342 17.5306L8.03205 20.5306C7.73919 20.8233 7.26459 20.8233 6.97174 20.5306L3.96984 17.5306C3.67685 17.2378 3.6767 16.7629 3.9695 16.4699C4.2623 16.177 4.73718 16.1768 5.03016 16.4696L6.75206 18.1904V4.49927C6.75206 4.08505 7.08784 3.74927 7.50206 3.74927C7.91627 3.74927 8.25206 4.08505 8.25206 4.49927V18.1902Z" fill="#323544"/>
</svg>
